<svg version="1.1" id="Layer_1" xmlns="http://www.w3.org/2000/svg" xmlns:xlink="http://www.w3.org/1999/xlink" x="0px" y="0px"
	 width="100%" viewBox="0 0 2240 2240" enable-background="new 0 0 2240 2240" xml:space="preserve">
<path fill="#000000" opacity="1.000000" stroke="none" 
	d="
M1078.000000,2.000000 
	C1108.041748,2.000000 1138.083618,2.000000 1169.656006,2.580415 
	C1184.428101,4.033099 1197.700684,4.578906 1210.904175,5.845661 
	C1238.307373,8.474748 1265.867554,10.282336 1293.005493,14.650566 
	C1325.742065,19.919977 1358.265137,26.808226 1390.601074,34.215393 
	C1458.566650,49.784145 1523.975342,73.196945 1587.349976,102.039337 
	C1623.696289,118.580925 1659.064941,137.167297 1693.523804,157.511322 
	C1760.536133,197.074600 1822.853516,242.997604 1879.972412,295.700684 
	C1906.852539,320.502625 1931.899902,347.346161 1957.056274,373.946808 
	C1988.188965,406.866486 2015.801392,442.739502 2041.758789,479.821625 
	C2083.292480,539.155334 2118.706055,601.994568 2148.136230,668.199707 
	C2177.398926,734.027954 2200.409424,801.968140 2215.840576,872.322510 
	C2222.444824,902.433777 2227.107178,932.978821 2232.345459,963.379578 
	C2237.085693,990.889526 2240.199463,1018.582153 2240.349121,1046.555664 
	C2240.362305,1049.039917 2241.424805,1051.518677 2242.000000,1054.000000 
	C2242.000000,1098.708496 2242.000000,1143.416870 2241.416992,1189.654297 
	C2239.269775,1212.351196 2238.407959,1233.600708 2235.959229,1254.665894 
	C2233.050781,1279.684326 2229.436035,1304.663452 2224.946045,1329.445557 
	C2217.780273,1368.997925 2208.037354,1407.955688 2196.445312,1446.486572 
	C2179.835938,1501.693115 2159.090088,1555.263550 2134.178955,1607.198853 
	C2106.059570,1665.822876 2073.080566,1721.614624 2035.060669,1774.404419 
	C2013.088989,1804.911255 1990.075195,1834.570679 1964.856934,1862.486206 
	C1955.727173,1872.592407 1947.040894,1883.118408 1937.584595,1892.904297 
	C1930.985962,1899.732910 1923.421753,1905.628662 1916.065186,1911.202759 
	C1910.716187,1893.609741 1906.031860,1876.606079 1900.398438,1859.922852 
	C1823.403687,1631.904907 1649.503784,1448.977173 1425.266724,1359.865723 
	C1344.510986,1327.773560 1260.632080,1309.730103 1173.788208,1303.381104 
	C1173.052490,1302.013306 1172.567261,1301.101074 1172.898926,1300.022217 
	C1190.460205,1297.098999 1207.393066,1295.179810 1223.920288,1291.459473 
	C1457.020020,1238.985840 1617.309082,1014.851990 1577.375122,768.057190 
	C1559.636475,658.430908 1508.308960,566.139709 1423.484009,494.405487 
	C1302.466675,392.064362 1162.929932,359.063995 1009.578613,397.208984 
	C778.229553,454.755310 622.220093,685.327881 673.056396,933.571594 
	C705.199158,1090.531006 798.684631,1201.028198 944.985962,1266.389526 
	C986.017883,1284.720947 1029.461548,1294.592163 1073.761353,1300.647461 
	C1073.046143,1302.042236 1072.506836,1302.942261 1071.111206,1304.000244 
	C1028.678345,1307.103394 987.477539,1312.614746 946.768982,1321.732910 
	C782.835266,1358.452393 643.072205,1437.975464 527.434204,1559.582886 
	C431.741913,1660.214966 367.301971,1778.604492 329.496338,1911.945068 
	C318.042084,1900.888062 306.773132,1890.447021 296.547241,1879.068604 
	C268.983398,1848.397827 242.679947,1816.679077 218.315292,1783.358276 
	C184.264938,1736.791382 153.778152,1688.010742 127.642143,1636.618652 
	C114.380363,1610.541748 102.186989,1583.880371 90.504486,1557.050415 
	C69.498657,1508.808960 52.339188,1459.127075 39.899086,1408.011963 
	C31.036207,1371.595337 23.531668,1334.813843 16.619329,1297.970215 
	C12.590786,1276.497681 10.524677,1254.622559 8.311177,1232.853882 
	C6.299575,1213.070801 5.309236,1193.184570 3.760409,1173.352295 
	C3.670117,1172.196045 2.609209,1171.115723 1.999999,1170.000000 
	C2.000000,1139.291504 2.000000,1108.583130 2.610275,1076.385132 
	C4.076961,1066.682129 4.975596,1058.472900 5.782067,1050.254517 
	C8.469823,1022.864746 10.123160,995.327271 14.051862,968.117676 
	C18.694450,935.963745 24.418678,903.904724 31.235767,872.139709 
	C42.974430,817.442200 60.048843,764.279541 80.300491,712.133484 
	C96.957314,669.243774 116.777176,627.796814 138.613647,587.378174 
	C161.559814,544.905518 187.393875,504.165558 215.777786,465.051056 
	C245.124146,424.610291 276.871063,386.127441 311.485352,350.179443 
	C334.541595,326.234802 359.180969,303.780701 383.620667,281.210510 
	C415.191742,252.054474 449.440338,226.195953 484.698090,201.693375 
	C537.835205,164.765457 593.434937,132.030930 652.622864,105.759644 
	C682.693909,92.412201 713.002869,79.418625 743.875916,68.096535 
	C815.199219,41.940048 888.519287,23.233696 963.984131,13.705747 
	C994.562927,9.844979 1025.287109,7.136115 1056.854614,3.948989 
	C1064.487183,3.104860 1071.592773,6.095053 1078.000000,2.000000 
z"/>
<path fill="#FFFFFF" opacity="1.000000" stroke="none" 
	d="
M1174.038574,1303.836548 
	C1260.632080,1309.730103 1344.510986,1327.773560 1425.266724,1359.865723 
	C1649.503784,1448.977173 1823.403687,1631.904907 1900.398438,1859.922852 
	C1906.031860,1876.606079 1910.716187,1893.609741 1915.847778,1911.862061 
	C1913.784180,1915.804443 1911.969116,1918.619507 1909.602905,1920.849854 
	C1894.854614,1934.750000 1880.165161,1948.721313 1865.117920,1962.294189 
	C1821.084961,2002.012695 1773.662476,2037.280029 1723.622925,2069.043457 
	C1649.803833,2115.900879 1571.580200,2153.658936 1488.913574,2182.158936 
	C1397.153198,2213.793701 1302.800415,2232.835205 1205.185425,2240.049316 
	C1199.549683,2240.644287 1194.774902,2241.322021 1190.000000,2242.000000 
	C1145.958252,2242.000000 1101.916382,2242.000000 1056.580078,2241.260498 
	C1050.825439,2240.440674 1046.365112,2240.360352 1041.049072,2240.061523 
	C1034.916992,2239.340088 1029.648438,2238.734131 1024.363647,2238.350830 
	C984.918335,2235.489014 945.870911,2229.730957 907.092834,2222.103760 
	C848.982483,2210.673828 792.079529,2194.941406 736.469666,2174.470947 
	C678.604126,2153.170410 622.971802,2127.112793 569.325684,2096.801514 
	C528.426208,2073.692383 489.333344,2047.754761 451.711853,2019.648926 
	C417.595581,1994.161621 385.177643,1966.597412 354.155365,1937.432861 
	C345.700439,1929.484375 338.132446,1920.592529 330.157349,1912.133667 
	C367.301971,1778.604492 431.741913,1660.214966 527.434204,1559.582886 
	C643.072205,1437.975464 782.835266,1358.452393 946.768982,1321.732910 
	C987.477539,1312.614746 1028.678345,1307.103394 1071.974609,1304.199707 
	C1078.404541,1304.068359 1083.114624,1303.895630 1088.713135,1303.929688 
	C1095.277832,1303.851318 1100.954102,1303.566040 1106.630493,1303.280762 
	C1106.656738,1302.803101 1106.682983,1302.325439 1106.709106,1301.847900 
	C1100.320190,1301.522461 1093.931152,1301.197021 1086.898926,1300.735229 
	C1082.149536,1300.450195 1078.043335,1300.301392 1073.937256,1300.152588 
	C1029.461548,1294.592163 986.017883,1284.720947 944.985962,1266.389526 
	C798.684631,1201.028198 705.199158,1090.531006 673.056396,933.571594 
	C622.220093,685.327881 778.229553,454.755310 1009.578613,397.208984 
	C1162.929932,359.063995 1302.466675,392.064362 1423.484009,494.405487 
	C1508.308960,566.139709 1559.636475,658.430908 1577.375122,768.057190 
	C1617.309082,1014.851990 1457.020020,1238.985840 1223.920288,1291.459473 
	C1207.393066,1295.179810 1190.460205,1297.098999 1172.209595,1299.830322 
	C1166.632568,1300.169922 1162.562012,1300.534790 1157.633545,1300.641846 
	C1150.913330,1301.047974 1145.050903,1301.711548 1139.188354,1302.375244 
	C1139.234131,1302.841919 1139.279907,1303.308716 1139.325562,1303.775513 
	C1145.602905,1303.775513 1151.880127,1303.775513 1159.038574,1303.823975 
	C1164.625977,1303.860474 1169.332275,1303.848511 1174.038574,1303.836548 
z"/>
<path fill="#47704C" opacity="1.000000" stroke="none" 
	d="
M1055.945190,3.903089 
	C1025.287109,7.136115 994.562927,9.844979 963.984131,13.705747 
	C888.519287,23.233696 815.199219,41.940048 743.875916,68.096535 
	C713.002869,79.418625 682.693909,92.412201 652.622864,105.759644 
	C593.434937,132.030930 537.835205,164.765457 484.698090,201.693375 
	C449.440338,226.195953 415.191742,252.054474 383.620667,281.210510 
	C359.180969,303.780701 334.541595,326.234802 311.485352,350.179443 
	C276.871063,386.127441 245.124146,424.610291 215.777786,465.051056 
	C187.393875,504.165558 161.559814,544.905518 138.613647,587.378174 
	C116.777176,627.796814 96.957314,669.243774 80.300491,712.133484 
	C60.048843,764.279541 42.974430,817.442200 31.235767,872.139709 
	C24.418678,903.904724 18.694450,935.963745 14.051862,968.117676 
	C10.123160,995.327271 8.469823,1022.864746 5.782067,1050.254517 
	C4.975596,1058.472900 4.076961,1066.682129 2.610275,1075.447754 
	C2.000000,718.147095 2.000000,360.294220 2.000000,2.000000 
	C352.708344,2.000000 703.416870,2.000000 1055.063477,2.476191 
	C1056.001709,2.952382 1055.945190,3.903088 1055.945190,3.903089 
z"/>
<path fill="#47704C" opacity="1.000000" stroke="none" 
	d="
M329.496368,1911.945068 
	C338.132446,1920.592529 345.700439,1929.484375 354.155365,1937.432861 
	C385.177643,1966.597412 417.595581,1994.161621 451.711853,2019.648926 
	C489.333344,2047.754761 528.426208,2073.692383 569.325684,2096.801514 
	C622.971802,2127.112793 678.604126,2153.170410 736.469666,2174.470947 
	C792.079529,2194.941406 848.982483,2210.673828 907.092834,2222.103760 
	C945.870911,2229.730957 984.918335,2235.489014 1024.363647,2238.350830 
	C1029.648438,2238.734131 1034.916992,2239.340088 1041.064697,2240.491943 
	C1041.936279,2241.141113 1042.000000,2242.000000 1042.000000,2242.000000 
	C695.476929,2242.000000 348.953888,2242.000000 2.000000,2242.000000 
	C2.000000,1885.291626 2.000000,1528.583130 1.999999,1170.937256 
	C2.609209,1171.115723 3.670117,1172.196045 3.760409,1173.352295 
	C5.309236,1193.184570 6.299575,1213.070801 8.311177,1232.853882 
	C10.524677,1254.622559 12.590786,1276.497681 16.619329,1297.970215 
	C23.531668,1334.813843 31.036207,1371.595337 39.899086,1408.011963 
	C52.339188,1459.127075 69.498657,1508.808960 90.504486,1557.050415 
	C102.186989,1583.880371 114.380363,1610.541748 127.642143,1636.618652 
	C153.778152,1688.010742 184.264938,1736.791382 218.315292,1783.358276 
	C242.679947,1816.679077 268.983398,1848.397827 296.547241,1879.068604 
	C306.773132,1890.447021 318.042084,1900.888062 329.496368,1911.945068 
z"/>
<path fill="#47704C" opacity="1.000000" stroke="none" 
	d="
M2242.000000,1053.062744 
	C2241.424805,1051.518677 2240.362305,1049.039917 2240.349121,1046.555664 
	C2240.199463,1018.582153 2237.085693,990.889526 2232.345459,963.379578 
	C2227.107178,932.978821 2222.444824,902.433777 2215.840576,872.322510 
	C2200.409424,801.968140 2177.398926,734.027954 2148.136230,668.199707 
	C2118.706055,601.994568 2083.292480,539.155334 2041.758789,479.821625 
	C2015.801392,442.739502 1988.188965,406.866486 1957.056274,373.946808 
	C1931.899902,347.346161 1906.852539,320.502625 1879.972412,295.700684 
	C1822.853516,242.997604 1760.536133,197.074600 1693.523804,157.511322 
	C1659.064941,137.167297 1623.696289,118.580925 1587.349976,102.039337 
	C1523.975342,73.196945 1458.566650,49.784145 1390.601074,34.215393 
	C1358.265137,26.808226 1325.742065,19.919977 1293.005493,14.650566 
	C1265.867554,10.282336 1238.307373,8.474748 1210.904175,5.845661 
	C1197.700684,4.578906 1184.428101,4.033099 1170.593384,2.580415 
	C1527.186157,2.000000 1884.372437,2.000000 2242.000000,2.000000 
	C2242.000000,352.041656 2242.000000,702.083496 2242.000000,1053.062744 
z"/>
<path fill="#47704C" opacity="1.000000" stroke="none" 
	d="
M1206.046265,2240.132324 
	C1302.800415,2232.835205 1397.153198,2213.793701 1488.913574,2182.158936 
	C1571.580200,2153.658936 1649.803833,2115.900879 1723.622925,2069.043457 
	C1773.662476,2037.280029 1821.084961,2002.012695 1865.117920,1962.294189 
	C1880.165161,1948.721313 1894.854614,1934.750000 1909.602905,1920.849854 
	C1911.969116,1918.619507 1913.784180,1915.804443 1916.071289,1912.600342 
	C1923.421753,1905.628662 1930.985962,1899.732910 1937.584595,1892.904297 
	C1947.040894,1883.118408 1955.727173,1872.592407 1964.856934,1862.486206 
	C1990.075195,1834.570679 2013.088989,1804.911255 2035.060669,1774.404419 
	C2073.080566,1721.614624 2106.059570,1665.822876 2134.178955,1607.198853 
	C2159.090088,1555.263550 2179.835938,1501.693115 2196.445312,1446.486572 
	C2208.037354,1407.955688 2217.780273,1368.997925 2224.946045,1329.445557 
	C2229.436035,1304.663452 2233.050781,1279.684326 2235.959229,1254.665894 
	C2238.407959,1233.600708 2239.269775,1212.351196 2241.416992,1190.591553 
	C2242.000000,1540.519653 2242.000000,1891.039429 2242.000000,2242.000000 
	C1897.291626,2242.000000 1552.583130,2242.000000 1206.932373,2241.532715 
	C1205.989990,2241.065430 1206.046265,2240.132324 1206.046265,2240.132324 
z"/>
<path fill="#2E4932" opacity="1.000000" stroke="none" 
	d="
M1056.854614,3.948989 
	C1055.945190,3.903088 1056.001709,2.952382 1056.000854,2.476191 
	C1062.722534,2.000000 1069.445190,2.000000 1077.083862,2.000000 
	C1071.592773,6.095053 1064.487183,3.104860 1056.854614,3.948989 
z"/>
<path fill="#749177" opacity="1.000000" stroke="none" 
	d="
M1205.185425,2240.049316 
	C1206.046265,2240.132324 1205.989990,2241.065430 1205.994995,2241.532715 
	C1201.258911,2242.000000 1196.517700,2242.000000 1190.888306,2242.000000 
	C1194.774902,2241.322021 1199.549683,2240.644287 1205.185425,2240.049316 
z"/>
<path fill="#759378" opacity="1.000000" stroke="none" 
	d="
M1042.875000,2242.000000 
	C1042.000000,2242.000000 1041.936279,2241.141113 1041.920654,2240.710449 
	C1046.365112,2240.360352 1050.825439,2240.440674 1055.642822,2241.260498 
	C1051.916626,2242.000000 1047.833374,2242.000000 1042.875000,2242.000000 
z"/>
<path fill="#343434" opacity="1.000000" stroke="none" 
	d="
M1087.824829,1303.722778 
	C1083.114624,1303.895630 1078.404541,1304.068359 1072.831055,1304.041748 
	C1072.506836,1302.942261 1073.046143,1302.042236 1073.761353,1300.647339 
	C1078.043335,1300.301392 1082.149536,1300.450195 1086.855835,1301.218994 
	C1087.746338,1302.434204 1087.869263,1303.062134 1087.824829,1303.722778 
z"/>
<path fill="#3F3F3F" opacity="1.000000" stroke="none" 
	d="
M1158.491333,1300.899536 
	C1162.562012,1300.534790 1166.632568,1300.169922 1171.392578,1299.996948 
	C1172.567261,1301.101074 1173.052490,1302.013306 1173.788208,1303.381104 
	C1169.332275,1303.848511 1164.625977,1303.860474 1159.019409,1303.334961 
	C1158.459717,1302.207275 1158.583862,1301.574707 1158.491333,1300.899536 
z"/>
<path fill="#898989" opacity="1.000000" stroke="none" 
	d="
M1088.713135,1303.929688 
	C1087.869263,1303.062134 1087.746338,1302.434204 1087.499023,1301.355225 
	C1093.931152,1301.197021 1100.320190,1301.522461 1106.709106,1301.847900 
	C1106.682983,1302.325439 1106.656738,1302.803101 1106.630493,1303.280762 
	C1100.954102,1303.566040 1095.277832,1303.851318 1088.713135,1303.929688 
z"/>
<path fill="#959595" opacity="1.000000" stroke="none" 
	d="
M1157.633545,1300.641846 
	C1158.583862,1301.574707 1158.459717,1302.207275 1158.138306,1303.286499 
	C1151.880127,1303.775513 1145.602905,1303.775513 1139.325562,1303.775513 
	C1139.279907,1303.308716 1139.234131,1302.841919 1139.188354,1302.375244 
	C1145.050903,1301.711548 1150.913330,1301.047974 1157.633545,1300.641846 
z"/>
</svg>